<svg xmlns="http://www.w3.org/2000/svg" width="96" height="96" xmlns:v="https://vecta.io/nano"><path d="M19.94 9.76c-5.48 0-9.53 4.8-9.35 10 .18 4.99-.05 11.46-1.68 16.74-1.64 5.29-4.4 8.64-8.91 9.07v4.86c4.51.43 7.27 3.78 8.91 9.07 1.63 5.27 1.86 11.75 1.68 16.74-.18 5.2 3.87 10 9.35 10h56.13c5.48 0 9.53-4.8 9.35-10-.18-4.99.05-11.46 1.68-16.74 1.63-5.29 4.39-8.64 8.9-9.07v-4.86c-4.51-.43-7.27-3.78-8.9-9.07-1.63-5.27-1.86-11.75-1.68-16.74.18-5.2-3.87-10-9.35-10H19.94zm45.14 47.07c0 7.16-5.34 11.5-14.2 11.5H35.8c-.9 0-1.63-.73-1.63-1.63V29.29c0-.9.73-1.63 1.63-1.63h15c7.39 0 12.24 4 12.24 10.15a9.1 9.1 0 0 1-7.42 8.85v.23c5.66.62 9.47 4.54 9.47 9.95zM49.24 32.82h-8.6v12.15h7.24c5.6 0 8.69-2.25 8.69-6.29 0-3.78-2.66-5.86-7.33-5.86zm-8.6 16.97v13.39h8.92c5.83 0 8.92-2.34 8.92-6.74s-3.18-6.65-9.29-6.65zm0 0" fill-rule="evenodd" fill="rgb(47.45098%,32.156863%,70.196078%)"/></svg>