<svg xmlns="http://www.w3.org/2000/svg" width="96" height="96" xmlns:v="https://vecta.io/nano"><path d="M28.7 80.6C25 77.7 21 75 18.5 71A77 77 0 0 1 5.6 48C3.8 42.6 3.2 36.8 1 31.6c-2.4-3.8.4-8 4.6-9 1.8-.4 5-2 1.2-1-3.5 2.6-3.8-2.3-.2-2.7 2.5-.3 3.4-2.3 2.5-4-2.6-1.7 6.4-3.6 1.8-6.2-4.7-5 6.6-6 3.8-.3-.7 4.5 8-.8 6 4.3 2 2.5 7.6.6 7.5 4 3 .2 4 2.7 6.8 3 3 1.3 8 2.3 9 5.6-3 2.3-9.5-4.7-9.8 1.6 1 9.2.6 18.8 4 27.6 1.6 5.3 5.5 9.5 9 13.7 3.4 4 8 7 12.5 9.3 4 2 8.4 3.2 12.8 4 1.8-1.4 5-6.5 7.8-4.3.1 2.4-5.6 5-.3 4.8 3-1 5.3 2.4 7.8-.6 2.4 2.8 9.8-1.8 8 4-2.3 1.5-5.6.6-7.8 2.6-3.7-2-6.7 1.7-11 1.2A80 80 0 0 1 63.1 90c-7.6-.6-15.5-1-22.7-3.5a46 46 0 0 1-11.7-5.9zm6.5 2.8c4 1.7 8 3.6 12.3 4 7 1 14 2.5 21 1-3.2-1.4-6.4.6-9.6-1-3.8.8-7.8-.2-11.7-.7-4.4-2-9-3.3-13.2-5.8-5-2 2.6 2.4 4 2.7 3.2 1.8-3.5-1-4.5-1.7-2.7-1.5-3-1.2-.3.3l1.7 1zM27.5 78c4 1.4 0-2.7-1.8-2.5-.8-1.4-3-2.2-1.4-3-2.8 1-3-3.7-4.3-3-3-1-1.2-4.3-4.7-6.3-.3-2.2-3.5-4-4.5-7.3-.5-1.7-3.6-6.4-1.7-2 1.7 4.3 4.6 8 7 11.6a24 24 0 0 0 7.5 9.3c1.2 1 2.3 2.8 4 3.2zM16.4 65.8c.1-.6.7 1.3 0 0zm15.8 14c1-.4-1.2-.5 0 0zm2 .8c-.2-1-1 .6 0 0zm2.6 1c1.3-1.2-2-.7 0 0zm4.5 2.5c.8-1-2.4-.4 0 0zm-8.7-6c2-1.3-2.5 0 0 0zm2 1c-.1-.7-.7.3 0 0zm10 6.2c1.6 1 9.3 2.2 4.5.4-.8.2-9-2.3-4.5-.4zM29 73c-.1-.7-2.5-.7 0 0zm4.6 2.7c1.2-.8-2.5-.6 0 0zm4 2.4c1.7-.6-2.8-.7 0 0zM27 71c2 1.4 7.5.2 3-1-2-1-7-2-3.6.7zm13 8c.8-1.3-3.3-.8 0 0zm-4-3c4.6 1.3-3.8-3-1-.5l.6.3.5.2zm8 4.6c4.3 0-4-.6 0 0zM25.4 68.5c-.2-.8-1 .1 0 0zm26 16c.1-1.5-1.4 1 0 0zM32.8 73c-.3-.8-1.4 0 0 0zm-7-5c2.5-.1-3.4-1 0 0zm-8.2-5.3c-.3-1.2-2.7-2 0 0zm21.6 13.7c-.4-.5-.2.1 0 0zm13.5 8.3c0-.8-.7.3 0 0zM38 75.2c.2-1-2-.3 0 0zm-10-6.4c1.8-.2-3-1.2 0 0zm17 10.5c3-1-2.8-.6 0 0zm-8.8-6c3.3.4-4-2.2-.7-.2zm11.5 7c3-1.8 2 4.3 5.2.5 3-2.3-2.7 2.8 1.2.4 2.8-2 7 1 9.5 1.8 2-.1 3.7 1.6 5.6.6 3.7-1-7.2-1.5-4.4-3.2-3.4 1-6-1.2-7.5-3.3-3.8-1-8.2-2.8-10-6.2-.8-1.3 1 .2-.7-2-2.3-2-3.4-4.3-5-6.8-1.8-1-2-4-2.2-.1 0-2.4-2.2-4-2.8-3.3 0-2.3 2.4-1 .7-2.8-.4-2.4-1.6-4.8-2-7.5-.6-1.3-.1-4-2-1-.7 3-.2-3.8.8-1.5 1.4-2.3-.5-2-.6-1.7 1-2 .6-4.7-.2-3.7.5-2 .7-7.6-.7-6.6 1-2.2 1.7-10-2-7-1.5 0-4.2.6-5.4 1.2 4 2.2-.4.8-2 .4-.2 2-1.8 1-3.8 1.2 3.2.4-1.5 3.2-3.4 2-2.4 1 2 4 0 4.8.2 1.3-3.6-.5-3.3 2.6-2.3-1-.3 3.6.8 2 4 1 2.7 3.5 2.8 5.8-.6 1.3-3-3-.6-3-2-3.3-2.2-1.2-4 .3-.4.1 4.3 2.2 1.4 3.2 2.6.4 2.7 2.7 3.2 4 1.6 1.6 1.2-1.8 3 .2-1.2-1.7-6.3-5-2.2-4 0-1.7-.7-3.2.5-3 1.2-2.2-1.3 5.5 1.5 2.7.8-.3 1-2.2 2.4.2 2 2 .7 3.4-2 1.6.5 1.7 3.8 2.4 3.2 5 .7 2.4 1.6 1.5 2.4 1.4.6 2.3 1 .6 1-.5 3 .6 2.2 2.3 3 3.5 2 1-2.8-6 .6-2 3.6 3.2 1.4 4.6-2 4 2-.2 2.7 2.8 5.3 2.7 2.3 1 4 5.4-.1 3.6-1.4-1.3-6.3-2.8-2.3-.4l10.2 5c2.6 1.8 3.7 4 4.6 4.3-2.2 1-6.5-.8-3.3-1.4-2-.4-4.3-1.4-2.3 1C42 77 46 77 46.8 77c-.6 1.4-1.7 1.5 0 1.6-2 1 .6 1.2.8 1.8zm-4-11.2c-1.2-1.2-1.5-3.6-.2-1.5.7.3 2 3.8.2 1.5zm13 8.2c.7 0 0 .6 0 0zM41.8 66c0-2 .4 1.4 0 0zm-1.3-1.7c-1.5-3 2 .8 0 0zM25 53.6c1-.2.4 1.5 0 0zm12.4 6.7c.5-2 .6 1.7 0 0zm-8.8-6c-.6-1 1.3 1 0 0zm7.5 2.4c-1.4-3.2 1-1.7.3.5zM23 48c-.6-1-1.7-4-1.3-5 .3 1.5 3.2 6.5 1.4 2-2-3.7 2.4 1.2 2.8 2 .2 1-1.2-.3-.2 2-1.8-2.5-1 1.4-2.6-1zm-4-2.8c.2-2.4 1 1.6 0 0zm1.8.6c1-1.8 1.5 2.5 0 0zm-4.4-3.3c-1.5-1.5-2.6-3 .1-1 1 0-2.3-3 .2-1 2.6.5 1.3 4.3-.3 2zm2.3-.1c1-1 .5.8 0 0zm1.4.5c-1.3-2.5 1.6 1 0 0zm-2.8-2.7c-4.3-4 5.5 2 .7.7zm12.4 7.2c-2-1-.5-8 .1-3.3 1.8-.6-.1 2.4 1.3 2.4-.2 2-.8 2.6-1.4 1zm4.6 2.7c.2-2 .4 1.4 0 0zm-.8-.8c.2-1 0 1 0 0zM18.3 39c-2.8-3.8 8 4 1.8 1-.7-.2-1.5-.2-1.8-1zm9 4.7c-.3-3.2.6.5 0 0zM34 48c.5-1.8 0 1.2 0 0zM18.7 37.5c1.7-.4 7 3 2 1-.5-.6-1.7-.3-2-1zm14.2 7c.2-3.3 1-2 0 .5zm-13-8.2c.7-1-1.8-4.5.4-1.2 1 .7 2.7 1.2 1 1.5 2.4 2.2-.6.6-1.5-.3zm12.3 7.2c.5-3.8.4 2.2 0 0zM18.5 33c.5-.2.3.7 0 0zm3.2 2c.8-1.7 1.5 2 0 0zm9 5c0-.7.2 1 0 0zm-.5-1.2c-1.3-3 1.2 1.6 0 0zm-.8-2c-.2-1.3.7 1.6 0 0zm1.3-2C30 33 31.8 28 32 31c-1 2.5-.3 4 .4.5 1.2-2.6-.3 5.2-1.7 3zM32 27c.4-.5.1.6 0 0zM30 69.4c-.5-.4.1.3 0 0zm4.4 2.2c2.5.6 2.5-.4.2-.7-1.2-1-5-2.3-1.6-.1.2.6 1 .6 1.4.8zm-8.8-5.8c1.4 1 5 3 2 .4 1-1.2-2-2-1-2.7-2.6-1.6-2-1.5-.2-1.4-3.2-1.4.5-1.3.3-2-1.2-.2-6-2.2-3.2.2-3-1.5-.7.6-1.6.3-3-.8 2.6 2.3-.5 1.5 1.7 1.4 4.6 3.5.7 1.4-.5.7 2.8 1.8 3.6 2.4zm4.6 2.7c5.6 1.8-2.8-2.2 0 0zM54 82.8c.1-1-.8 1 0 0zm2.4 1c1.3-1.3.1 2 2.2-.3 0-1.7-.1-2.6-2.4-.6-.7.4-1 2 .3 1zM17.6 59.5c-.4-1.6-2.8-1.6 0 0zm2.6 1.7c-1-1.6-3.5-1.5 0 0zm14.8 9c1.4 1.3 6.7 1 1.8.2-.7-1-4.6-.8-1.8-.2zm20.4 12.6c2.2-2-2.2.8 0 0zM60 86c0-.6-1 .3 0 0zm0-.8c2.5-2.6-2.4.1 0 0zm-49-31C9 51 10 49.8 8 47.3c-.4-2-3.5-6-1.6-1.6 1.7 2.6 2.2 6.7 5 8.4zm48 30c4.5-3-2-1.3 0 0zm3.5 1.4c2.3-2-1.4-.4 0 0zM17 56.2c.7-1-1.7-.1 0 0zM62 84.7c2.2-1.4-.5-1.2-.4.1zM32.2 66c-.1-1-1.2.1 0 0zm1.8 1c-.6-1.2-1 .2 0 0zm31.6 18.7c2.8-2-1.7-.4-.6.4zm-1-.5c2.3-2-2.4 1 0 0zm5.5 3.7c1.5-1-2-.3 0 0zM18.3 55.5c2 .5 8.3 5 4.6.3-2-.6-.7-5-2.7-4.3 1.3 2 1 3-1.6 1.7-3.4-1.6-2 .8-1.2 1.5-1 .2 1.2.8 1 .8zM9 48c.4-1.5-3.4-8.4-1.8-3.5.6 1 .5 3 1.8 3.5zm17.3 10.7c-1-1-.1-.1 0 0zm2.6.6c0-1.6-3-.7 0 0zm22.7 14.3c-.4-1-1.7 0 0 0zm1 .8c-.2-.6-.6.1 0 0zm9 5.7c1-.6-1-.1 0 0zm-48-31c2.5-1-2.7-.7 0 0zm36 22.6c0-1.6-1.6.4 0 0zm-37-25c1.6-.5-1.5-.4 0 0zm4.6 2.2c0-.5-.5.2 0 0zm56.4 34.6c2-.4 6.7 1 7.5-.5-2.5-.1-8.6-1.8-9 .4l.5.1 1 .1zm-55-34.2c0-1.6-1.3-.1 0 0zm-12-8.4c-.6-3-2-.5 0 0zm3 .7c0-1-2.7-1 0 0zm1.7.8c-.5-.4-.4.5 0 0zm10.4 6.7c.5-.4-1.2-.3 0 0zM10 41c-.3-2.3-3.4-.4 0 0zm-6-4c-.1-1-.6.4 0 0zm1-.7c-.1-1.3-.8.2 0 0zm5 3c2-.8-3.8-1.7-.4-.2zM75 79.6c1.3-1.2-1.7-.4 0 0zm8 4c.5-1.6-1.3.2 0 0zm-72.7-47c.2-1.5-1.6.3 0 0zm-7-4.6c-.4-2-.3-6 3.3-4.6-4.8 1 3.3 6 2.3 2 2 .1 4-1.2 3 .8 4-.4 6.7-4 10.5-3.4 3-.4 6.2-.7 9.4-2 2.6-.2 5.2-3 3.7-4.7a41 41 0 0 0-11.3.9c-4.4 1-8.4 2.7-12.8 3.4-4.3.6 1 1.6-.4 1.8-2.2.8 2.7 1.3-.3 2-1.8-.4-3.8-1-3-3C3.5 26-.2 27.8 3 32h.2zm10-5c1-3.6 5.2 3 1.6.5-.4-.3-1-.6-1.6-.5zm.2-1.7c1.4-1 .7.6 0 0zm1.8 0c.1-1.6 4 1 .7.6zm2.4-1c1-1 .3 1 0 0zm.6-.4c1.5-1.8 8.4-1 3.3-.2-1.4-1-2.4.6-3.3.2zm9-1.4c-.2-5 4.5 1.7 0 0zm2.6 0c1-2.4 3.6-1 .4-.5.1.3-.1 1.3-.4.5zm-20.6 13c2.8-1.7-3-1.5 0 0zm2 .6c1-1-2-.4 0 0zm-6-4.4c1.6-1.2-2-.5 0 0zm82.4 51.6c0-1.4-1.2.6 0 0zm-8.4-5.7c.2-1.6-1 .1 0 0zM90 83.8c2.2 0 6.8-.7 2-.7-.8.1-4.4.1-2 .7zM13.2 35c1.8-.1 2.8-2-.4-2-5-.5 4.3 1.7-.6 1-.7.4 1 1 1 .8zm1.6.8c-.2-1.2-.6.6 0 0zm2-5c.8-1-1-.3 0 0zm-6-10c3.2-1 7.6-2.3 9.2.5-1.5-2-.6-3.7.8-1 2 2.8 3-1.3 1.8-2.2 1.5 2 3.3 2.8 1 .1 2.4-3-5 .4-6.6.4-.8.4-8.3 2-6.2 2zm2-3.6c1.8-1.4 6.4.8 3.5-1.4-.3-.2-6.3 1.7-3.5 1.4zm6.7.3c2 .1-1-3 1.6-1.6-.4-1.4-3-1.6-4.2-2.2-.7 1.3 1.4 3.8 2.6 3.7zm-5.5-6c.7-1-1.3.5 0 0zm2.7.7c3.5-.5-1-1.5-.7 0zm-5-4c-2.4-3.2 4.6.5 2-2.8-2-1.7-4 2-2 2.8zm31.3 17c1-2-4.6-2.7-.7-.7.4.1.3.8.8.7zm0 0" fill="rgb(0%,0%,0%)"/></svg>