<svg xmlns="http://www.w3.org/2000/svg" width="96" height="96" xmlns:v="https://vecta.io/nano"><path d="M17 0h62c9.4 0 17 7.8 17 17.4v61C96 88.2 88.4 96 79 96H17C7.6 96 0 88.2 0 78.6v-61C0 7.8 7.6 0 17 0zm0 0" fill="rgb(20%,0%,0%)"/><path d="M46.4 57.4h-15l-3 9.6c-.1.4-.4.6-.8.6h-7.5c-.4 0-.6-.2-.4-.7l13-38 .4-1.4c.2-1 .2-1.8.2-2.7 0-.2.1-.4.3-.5H44c.3 0 .5.1.5.3L59 67c.1.4 0 .7-.4.7h-8.4c-.3 0-.6-.2-.6-.5zM33.8 49H44a54 54 0 0 0-.9-3l-1-3.5-1.2-3.8-1-3.7-1-3.2h-.1l-1.4 5.3-1.8 6a83 83 0 0 1-1.8 5.7zM68 31.6c-1.3 0-2.6-.5-3.6-1.4-1-1-1.4-2.4-1.4-3.8 0-1.4.5-2.7 1.4-3.7s2.2-1.4 3.6-1.4c1.6 0 2.8.5 3.6 1.4 1 1 1.4 2.3 1.3 3.7 0 1.4-.4 2.8-1.4 3.8-1 1-2.3 1.5-3.6 1.4zm-4.5 35.6V35.6c0-.4.2-.6.5-.6h8c.4 0 .5.2.5.6v31.6c0 .5-.2.7-.5.7H64c-.4 0-.6-.2-.6-.7zm0 0" fill="rgb(100%,60.392157%,0%)"/></svg>