<svg xmlns="http://www.w3.org/2000/svg" xml:space="preserve" x="0" y="0" version="1.1" viewBox="0 0 960 960"><path d="M866 262v174c0 4-2 9-6 11L717 530v164c0 4-2 9-6 11l-300 172-2 1h-8l-2-1-300-173c-4-2-6-6-6-11V177l1-2 1-1 1-1 1-1 1-1 150-86c4-2 9-2 12 0l150 86 1 1 1 1 1 1 1 1 1 2v324L540 429V261l1-2 1-1 1-1 1-1 1-1 150-86c4-2 9-2 12 0l150 86 1 1 1 1 1 1 1 1 1 2 4 1zm-24 167V287l-52 30-72 42v142l124-72zm-150 257V544l-71 41-203 116v144l274-159zM118 202v484l274 158V701L249 620l-1-1-1-1-1-1-1-1-1-2-1-1V274l-72-42-53-30zm137-93L130 181l125 72L380 180l-125-71zM320 557l72-42V202l-52 30-72 42v313l52-30zm385-364L580 265l125 72L830 265l-125-72zm-13 166L620 317l-52-30v142l72 42 52 30V359zm-287 320 183-104 91-52-125-72-143 83L280 609c1-1 125 70 125 70" fill="#ff2d20" fill-rule="evenodd" clip-rule="evenodd"/></svg>
