<svg xmlns="http://www.w3.org/2000/svg" viewBox="0 0 256 256" width="96" height="96" fill-rule="nonzero" xmlns:v="https://vecta.io/nano"><path d="M35.6 10.7c-8.6-.5-17.3 3.6-21.7 11a23 23 0 0 0-3.2 11.6c0 10 6.4 18 10.2 22.8l2 2.5 1.7 2.3c1.7 2.3 3.7 4.8 4.3 6 .2.6.5 1.6 1 3 1.7 6 4.8 17.2 9.8 25.7l7 10.8c-1.4 6.8-3.6 19.3-3.6 27 0 13.3 2.8 24 8.8 33.8 2.2 3.5 9 14.2 20.5 14.2 4 0 11-1.6 12.7-11.7a123 123 0 0 0 35.1 32.1c.8.6 1.8 1 3 1 3 0 5.3-2.4 5.3-5.3 0-1.8-1-3.3-2.3-4.3-14.6-14-34-37.7-41.7-57-1.6-4-7-4.6-9.3-1-2.4 3.8-5.3 9-8 15.4a46 46 0 0 1-2.8-17.2c0-5 2.8-20 4.3-27.2.5-2.7 0-5.4-1.6-7.7a304 304 0 0 1-8.8-13.5c-3.6-6-6.2-15.7-7.6-20.7-.7-2.5-1.2-4.3-1.7-5.5-2-4-4.6-7.6-7-10.7l-1.4-1.7-2.6-3.4c-2-2.5-5.6-7-5.5-10l1.2-.8h0c8.5 0 19.4 6 23.5 8.3l3 1.5 2 .8 3.6.1c4.8.1 19.3.4 29.5 4.5 18.7 7.5 29 15 39.5 28.6 14 18.3 23 39.7 28.3 54.8 2.4 7 4.5 15 5.8 20.2.8 3.4 3.3 6 6.5 7.3l17.2 8.2a97 97 0 0 1 15.1 11.6c-11.7 3-18.7 7.5-22.4 10.6-2.2 2-2.4 5-.5 7.3 3.6 4.2 11.6 11.3 26.5 21.4a122 122 0 0 1 25.3 26c1 1.2 2.4 2 4 2 3 0 5.3-2.4 5.3-5.3 0-1-.3-2-1-3-.2-.3-1.6-2.6-2-3.6-5.3-9.4-15.4-23-25.7-36a171 171 0 0 1 20.5-4.9c3.8-.7 5.6-5 3.4-8.2-3-4.2-7.2-10-12.6-15.5a127 127 0 0 0-40.3-28.7c-3.6-13.5-14.2-48.2-36.6-77.2a104 104 0 0 0-48.5-35.4c-13-5.2-28.8-6-35.8-6a78 78 0 0 0-31.2-10.7zm40.6 42.6c-.2 0-4 0-8 1-1 .2-1.6 1-2 1.7-.3.8-.2 1.8.4 2.5l11 15c.5.7 1 1.3 2 1 .8 0 1.6-.4 2-1 3.5-4.7 3.5-10 3.5-10.3 0-.3 0-.6-.2-1-.1-.3-2.5-6.4-8-8.8-.3-.1-.7-.2-1-.2z" fill="#00796b"/></svg>