<svg xmlns="http://www.w3.org/2000/svg" xml:space="preserve" x="0" y="0" version="1.1" viewBox="0 0 960 960"><path d="M527 267c45 0 192 1 240-1 26 8 32 16 32 46V540c1 20 0 40-1 60-2 17-17 30-34 30-58 1-117 0-176 3-27 1-66 28-66 28l-88 87s-8 9-13 6-4-16-4-16l-2-64c2-33-22-39-22-39L290 630h-94c-23-1-32-9-33-31-1-100-1-199 0-299 0-20 9-29 30-31l25-1 309-1" fill="#fff"/><path d="M767 266c-49 2-195 1-240 1H219l-25 1c-20 3-29 11-30 31-1 100-1 199 0 299 0 22 10 31 33 31h94l104 5s24 7 22 39l2 64s-2 13 4 16 13-6 13-6l88-86s39-26 66-28c59-3 117-2 176-3 17 0 32-13 34-30 1-20 2-40 1-60V312c-2-30-8-38-34-46zm15-46 13 3c35 14 52 39 52 79v299c0 48-32 79-80 79-53 0-107 3-160 0-35-2-55 13-77 36l-146 150c-5-6-7-15-6-23l-1-144s-5-18-18-18L187 680c-38 1-74-40-74-73V293c0-35 36-73 74-73h595" fill="#505556"/><path d="M827 107c7 10 7 24-1 34L730 319s-90 139-144 202c-7 10-18 15-30 12-14-6-20-21-15-35C573 419 660 272 660 272s90-129 120-165a29 29 0 01 41-6l6 6" fill="#f38b4f"/></svg>
