<svg xmlns="http://www.w3.org/2000/svg" viewBox="0 0 48 48" width="96" height="96" xmlns:v="https://vecta.io/nano"><path fill="#03a9f4" d="M6 10a4 4 0 0 1 4-4h28a4 4 0 0 1 4 4v28a4 4 0 0 1-4 4H10a4 4 0 0 1-4-4V10z"/><path d="M20 19.2h-2v4.4h2c.5 0 1-.2 1.3-.5s.4-.9.4-1.6-.2-1.3-.5-1.7-.7-.6-1.2-.6zM9 9v30h30V9H9zm14.4 15.8c-.8.8-2 1.2-3.4 1.2h-2v5h-2.9V16.8H20c1.4 0 2.5.4 3.4 1.3s1.3 2 1.3 3.4-.4 2.5-1.2 3.3zm9.3 5.5c-.7.6-1.6.9-2.8.9-.8 0-1.5-.2-2.1-.5s-1.1-.7-1.4-1.3-.5-1.1-.5-1.7h2.6c0 .5.1.8.3 1.1s.6.4 1 .4c.7 0 1.1-.3 1.1-1 0-.2-.1-.5-.3-.6s-.7-.5-1.5-.8c-1.1-.5-1.9-.9-2.3-1.4s-.6-1.1-.6-1.8c0-.9.3-1.7 1-2.3a4 4 0 0 1 2.7-.9c1.2 0 2.1.3 2.8.9s1 1.4 1 2.4H31c0-.9-.4-1.3-1.1-1.3a1 1 0 0 0-.7.3c-.2.2-.3.4-.3.8 0 .2.1.4.3.6s.7.4 1.5.8c1.1.4 1.9.9 2.4 1.4s.7 1.2.7 2c0 .9-.4 1.7-1.1 2.3z" fill="#020f16"/></svg>