<svg xmlns="http://www.w3.org/2000/svg" width="96" height="96" xmlns:v="https://vecta.io/nano"><path d="M17 0h62c9.4 0 17 7.8 17 17.4v61C96 88.2 88.4 96 79 96H17C7.6 96 0 88.2 0 78.6v-61C0 7.8 7.6 0 17 0zm0 0" fill="rgb(0%,11.764706%,21.176471%)"/><path d="M21.6 67.3V25c0-.3.1-.5.4-.5h2.2l3-.1h3.5 3.6a23 23 0 0 1 8.2 1.3c2 .7 3.8 1.8 5.4 3.4 1.3 1.3 2.3 3 3 4.7a16 16 0 0 1 1 5.3c0 3.5-.8 6.4-2.4 8.7s-3.8 4-6.4 5c-2.7 1-5.7 1.4-9 1.4h-2-1.7v13.2c0 .3-.2.5-.4.6h-.2H22c-.3 0-.5-.2-.5-.5zm8.7-34.7v13.8H32h2c1.6 0 3-.2 4.6-.7 1.3-.4 2.4-1 3.3-2.2.8-1 1.2-2.4 1.2-4.2 0-1.3-.3-2.5-1-3.6-.7-1-1.6-2-2.8-2.3-1.5-.6-3-1-4.7-.8H32a9 9 0 0 0-1.6 0zM76.8 44a14 14 0 0 0-3.8-1.4 23 23 0 0 0-4.5-.5c-.8 0-1.6.1-2.4.3-.5.1-1 .4-1.2.8-.2.3-.3.7-.3 1s.2.7.4 1c.4.4.8.8 1.4 1l2.8 1.4c2.2.7 4.2 1.8 6.2 3 1.3 1 2.4 2 3.2 3.4.6 1.3 1 2.8 1 4.2 0 2-.5 4-1.6 5.5-1 1.6-2.7 3-4.5 3.7a18 18 0 0 1-7.2 1.3 33 33 0 0 1-5.4-.5c-1.4-.2-2.8-.7-4-1.3-.3-.2-.5-.4-.4-.8v-7c0-.1 0-.3.2-.4s.2 0 .4 0c1.6 1 3.2 1.6 5 2 1.5.4 3 .6 4.7.6 1.5 0 2.6-.2 3.3-.6.6-.3 1-1 1-1.7 0-.6-.3-1-1-1.6a17 17 0 0 0-3.9-1.9c-2-.7-4-1.7-5.7-3-1.2-1-2.3-2-3-3.5a9 9 0 0 1-.9-4.2c0-1.8.5-3.4 1.4-5 1-1.6 2.5-3 4.2-3.8 2-1 4.2-1.4 7-1.4 1.6 0 3.3.1 5 .4 1.2.2 2.4.5 3.4 1 .2 0 .3.2.4.4 0 .2.1.3.1.5v6.7c0 .2-.1.3-.2.4-.4.1-.6.1-.7 0zm0 0" fill="rgb(19.215686%,65.882353%,100%)"/></svg>