<svg xmlns="http://www.w3.org/2000/svg" width="96" height="96" xmlns:v="https://vecta.io/nano"><defs><linearGradient id="A" gradientUnits="userSpaceOnUse" x1="43.7" y1="7.8" x2="43.7" y2="69.5"><stop offset="0" stop-color="rgb(59.215686%,85.098039%,96.470588%)"/><stop offset=".9" stop-color="rgb(5.882353%,50.196078%,80%)"/></linearGradient></defs><path d="M72.6 4.2H12.4c-4 0-7.3 3.3-7.3 7.3V78c0 4 3.3 7.3 7.3 7.3H52c-.4-19.7 6.3-58 20.6-81zm0 0" fill="rgb(5.882353%,50.196078%,80%)"/><path d="M70.5 6.4h-58c-3 0-5.2 2.3-5.2 5.2v61.6c13.2-5 33-9.4 46.5-9.2A424 424 0 0 1 70.5 6.4zm0 0" fill="url(#A)"/><path d="M86.7 2c-4-3.7-9-2.2-14 2.2l-2.2 2c-8.4 9-16 25.5-18.7 38.2 1 2 1.6 4 2.2 6.2l.3 1.5.3 1.5s-.1-.3-.4-1.2L54 52c0-.1-.1-.2-.1-.3-.6-1.3-2-4-2.7-5.2l-1.5 4.7c2 3.5 3 9.6 3 9.6s-.1-.4-.6-1.8c-.4-1.2-2.6-5-3-6-1 3.2-1.2 5.4-1 6 .6 1 1.2 3 1.7 4.7a112 112 0 0 1 1.9 9.8v1l.2 11a39 39 0 0 0 2 10.6l.6-.3A48 48 0 0 1 53 79.9c.4-9.6 2.6-21.2 6.6-33.2 7-18.4 16.5-33 25.2-40C77 14 66 37.3 63 46c-3.6 9.7-6.2 18.7-7.7 27.4 2.7-8 11.3-11.7 11.3-11.7L75.6 49l-9.4 2.5-3 1.3s7.8-4.7 14.5-7c9.2-14.5 19.2-35 9-44" fill="rgb(0%,23.137255%,34.117647%)"/></svg>