<svg xmlns="http://www.w3.org/2000/svg" width="96" height="96" xmlns:v="https://vecta.io/nano"><path d="M17 0h62c9.4 0 17 7.8 17 17.4v61C96 88.2 88.4 96 79 96H17C7.6 96 0 88.2 0 78.6v-61C0 7.8 7.6 0 17 0zm0 0" fill="rgb(27.843137%,0.392157%,21.568627%)"/><path d="M50.5 25.2l-12 20.3L51.3 67c.1.2.1.3.1.5s-.2 0-.4.1h-9.2c-.6 0-1 0-1.4-.5l-2.6-5c-.8-1.7-1.8-3.4-2.8-5l-3-5.3H32L29.5 57a577 577 0 0 0-2.7 5.3l-2.8 5c-.2.4-.5.5-1 .5h-8.8c-.2 0-.3.1-.3-.1s0-.3.1-.4l12.4-21-12-21c-.1-.2-.2-.3-.1-.4s.2-.2.4-.2h9c.2 0 .4 0 .6.1s.3.2.4.4a78 78 0 0 0 2.6 5.3l3 5.2L33 41h.1l2.6-5.3 2.7-5.2L41 25c0-.2.1-.3.2-.4.2-.1.3-.1.5-.1H50c.2 0 .4.1.4.3 0 0 0 .2-.1.3zM69 68.5c-3 0-6-.6-8.6-1.8-2.5-1.2-4.6-3.2-6-5.6-1.5-2.5-2.2-5.6-2.2-9.4 0-3 .7-6 2.2-8.7s3.7-5 6.4-6.4a20 20 0 0 1 10.1-2.4h.8l1.2.1v-13c0-.3.1-.4.4-.4h8c.2 0 .4.1.4.3v.1 39c0 .7 0 1.6.1 2.5v2.4c0 .3-.1.5-.4.7a30 30 0 0 1-6.5 2l-6.2.6zm4-8.2v-18l-1-.2c-.4 0-1-.1-1.3-.1-1.6 0-3 .3-4.5 1-1.4.7-2.5 1.7-3.4 3s-1.3 3-1.3 5.2c0 1.4.2 3 .7 4.2.4 1 1 2 1.8 3 .8.7 1.7 1.3 2.7 1.6 1 .4 2.2.5 3.3.5l1.7-.1c.5 0 1 0 1.4-.2zm0 0" fill="rgb(100%,38.039216%,96.470588%)"/></svg>