<svg xmlns="http://www.w3.org/2000/svg" viewBox="0 0 48 48" width="96" height="96" xmlns:v="https://vecta.io/nano"><path fill="#ff41c8" d="M6 10a4 4 0 0 1 4-4h28a4 4 0 0 1 4 4v28a4 4 0 0 1-4 4H10a4 4 0 0 1-4-4V10z"/><path fill="#16020b" d="M9 9v30h30V9H9zm10.1 12.7l1.9-4.9h3.3L21 23.9l3.4 7.2H21l-2-5-1.9 5h-3.3l3.4-7.2-3.3-7.1h3.3l1.9 4.9zm6 3.7c0-1.7.3-3 .9-3.9s1.4-1.3 2.6-1.3c.8 0 1.5.4 2 1.1V16h2.8v15h-2.5l-.1-1.1c-.6.8-1.3 1.3-2.2 1.3-1.1 0-2-.4-2.5-1.3s-.9-2.1-.9-3.7v-.8zm2.8.7c0 1 .1 1.8.3 2.2s.6.6 1.1.6c.5 0 1-.2 1.2-.7v-4.8c-.3-.5-.7-.8-1.2-.8-.5 0-.9.2-1.1.6s-.4 1.1-.4 2.2v.7z"/></svg>